<mxfile host="app.diagrams.net" modified="2023-02-25T05:20:55.622Z" agent="5.0 (Macintosh; Intel Mac OS X 10_15_7) AppleWebKit/537.36 (KHTML, like Gecko) Chrome/109.0.0.0 Safari/537.36" version="20.8.5" etag="Vew080CUnwny1s3KeNU6" type="github">
  <diagram id="9OjSqcRy2-oI7cbM97lL" name="第 1 页">
    <mxGraphModel dx="1206" dy="714" grid="1" gridSize="10" guides="1" tooltips="1" connect="1" arrows="1" fold="1" page="1" pageScale="1" pageWidth="827" pageHeight="1169" math="0" shadow="0">
      <root>
        <mxCell id="0" />
        <mxCell id="1" parent="0" />
        <mxCell id="YfUdEmCJQRdxEmTbm3wy-1" value="人物介绍" style="rounded=1;whiteSpace=wrap;html=1;strokeColor=#788AA3;fontColor=#46495D;fillColor=#B2C9AB;fontFamily=Comic Sans MS;" vertex="1" parent="1">
          <mxGeometry x="310" y="100" width="120" height="60" as="geometry" />
        </mxCell>
        <mxCell id="YfUdEmCJQRdxEmTbm3wy-2" value="斯库特·芬奇" style="rounded=1;whiteSpace=wrap;html=1;strokeColor=#788AA3;fontColor=#46495D;fillColor=#B2C9AB;fontFamily=Comic Sans MS;" vertex="1" parent="1">
          <mxGeometry x="140" y="285" width="120" height="60" as="geometry" />
        </mxCell>
        <mxCell id="YfUdEmCJQRdxEmTbm3wy-3" value="杰姆·芬奇" style="rounded=1;whiteSpace=wrap;html=1;strokeColor=#788AA3;fontColor=#46495D;fillColor=#B2C9AB;fontFamily=Comic Sans MS;" vertex="1" parent="1">
          <mxGeometry x="310" y="285" width="120" height="60" as="geometry" />
        </mxCell>
        <mxCell id="YfUdEmCJQRdxEmTbm3wy-4" value="汤姆·鲁滨逊" style="rounded=1;whiteSpace=wrap;html=1;strokeColor=#9673a6;fillColor=#e1d5e7;fontFamily=Comic Sans MS;" vertex="1" parent="1">
          <mxGeometry x="310" y="585" width="120" height="60" as="geometry" />
        </mxCell>
        <mxCell id="YfUdEmCJQRdxEmTbm3wy-5" value="阿瑟·拉德利" style="rounded=1;whiteSpace=wrap;html=1;strokeColor=#b85450;fillColor=#f8cecc;fontFamily=Comic Sans MS;" vertex="1" parent="1">
          <mxGeometry x="140" y="425" width="120" height="60" as="geometry" />
        </mxCell>
        <mxCell id="YfUdEmCJQRdxEmTbm3wy-6" value="阿迪克斯·芬奇" style="rounded=1;whiteSpace=wrap;html=1;strokeColor=#788AA3;fontColor=#46495D;fillColor=#B2C9AB;fontFamily=Comic Sans MS;" vertex="1" parent="1">
          <mxGeometry x="484" y="285" width="120" height="60" as="geometry" />
        </mxCell>
        <mxCell id="YfUdEmCJQRdxEmTbm3wy-7" value="马耶拉·尤厄尔" style="rounded=1;whiteSpace=wrap;html=1;strokeColor=#9673a6;fillColor=#e1d5e7;fontFamily=Comic Sans MS;" vertex="1" parent="1">
          <mxGeometry x="140" y="585" width="120" height="60" as="geometry" />
        </mxCell>
        <mxCell id="YfUdEmCJQRdxEmTbm3wy-8" value="鲍勃·尤厄尔" style="rounded=1;whiteSpace=wrap;html=1;strokeColor=#9673a6;fillColor=#e1d5e7;fontFamily=Comic Sans MS;" vertex="1" parent="1">
          <mxGeometry x="484" y="585" width="120" height="60" as="geometry" />
        </mxCell>
        <mxCell id="YfUdEmCJQRdxEmTbm3wy-9" value="怪人" style="text;html=1;align=center;verticalAlign=middle;resizable=0;points=[];autosize=1;strokeColor=none;fillColor=none;fontColor=#46495D;fontFamily=Comic Sans MS;" vertex="1" parent="1">
          <mxGeometry x="175" y="390" width="50" height="30" as="geometry" />
        </mxCell>
        <mxCell id="YfUdEmCJQRdxEmTbm3wy-10" value="黑人，强奸案被告" style="text;html=1;align=center;verticalAlign=middle;resizable=0;points=[];autosize=1;strokeColor=none;fillColor=none;fontColor=#46495D;fontFamily=Comic Sans MS;" vertex="1" parent="1">
          <mxGeometry x="310" y="550" width="120" height="30" as="geometry" />
        </mxCell>
        <mxCell id="YfUdEmCJQRdxEmTbm3wy-11" value="斯库特的哥哥" style="text;html=1;align=center;verticalAlign=middle;resizable=0;points=[];autosize=1;strokeColor=none;fillColor=none;fontColor=#46495D;fontFamily=Comic Sans MS;" vertex="1" parent="1">
          <mxGeometry x="310" y="250" width="100" height="30" as="geometry" />
        </mxCell>
        <mxCell id="YfUdEmCJQRdxEmTbm3wy-12" value="主人公，小女孩" style="text;html=1;align=center;verticalAlign=middle;resizable=0;points=[];autosize=1;strokeColor=none;fillColor=none;fontColor=#46495D;fontFamily=Comic Sans MS;" vertex="1" parent="1">
          <mxGeometry x="145" y="250" width="110" height="30" as="geometry" />
        </mxCell>
        <mxCell id="YfUdEmCJQRdxEmTbm3wy-15" value="斯库特和杰姆的父亲，律师" style="text;html=1;align=center;verticalAlign=middle;resizable=0;points=[];autosize=1;strokeColor=none;fillColor=none;fontColor=#46495D;fontFamily=Comic Sans MS;" vertex="1" parent="1">
          <mxGeometry x="459" y="250" width="170" height="30" as="geometry" />
        </mxCell>
        <mxCell id="YfUdEmCJQRdxEmTbm3wy-16" value="强奸案原告，白人" style="text;html=1;align=center;verticalAlign=middle;resizable=0;points=[];autosize=1;strokeColor=none;fillColor=none;fontColor=#46495D;fontFamily=Comic Sans MS;" vertex="1" parent="1">
          <mxGeometry x="140" y="550" width="120" height="30" as="geometry" />
        </mxCell>
        <mxCell id="YfUdEmCJQRdxEmTbm3wy-17" value="马耶拉父亲" style="text;html=1;align=center;verticalAlign=middle;resizable=0;points=[];autosize=1;strokeColor=none;fillColor=none;fontColor=#46495D;fontFamily=Comic Sans MS;" vertex="1" parent="1">
          <mxGeometry x="504" y="550" width="80" height="30" as="geometry" />
        </mxCell>
        <mxCell id="YfUdEmCJQRdxEmTbm3wy-18" value="Part1" style="text;html=1;align=center;verticalAlign=middle;resizable=0;points=[];autosize=1;strokeColor=none;fillColor=none;fontColor=#46495D;fontFamily=Comic Sans MS;" vertex="1" parent="1">
          <mxGeometry x="50" y="440" width="50" height="30" as="geometry" />
        </mxCell>
        <mxCell id="YfUdEmCJQRdxEmTbm3wy-21" value="Part2" style="text;html=1;align=center;verticalAlign=middle;resizable=0;points=[];autosize=1;strokeColor=none;fillColor=none;fontColor=#46495D;fontFamily=Comic Sans MS;" vertex="1" parent="1">
          <mxGeometry x="50" y="600" width="50" height="30" as="geometry" />
        </mxCell>
      </root>
    </mxGraphModel>
  </diagram>
</mxfile>
